<!DOCTYPE svg PUBLIC "-//W3C//DTD SVG 1.1//EN" "http://www.w3.org/Graphics/SVG/1.1/DTD/svg11.dtd">
<svg fill="#ffffff" width="200px" height="200px" viewBox="0 0 20 20" xmlns="http://www.w3.org/2000/svg" stroke="#ffffff" stroke-width="0">
<g id="SVGRepo_bgCarrier" stroke-width="0"/>
<g id="SVGRepo_iconCarrier">
<path d="M0 2C0 .9.9 0 2 0h16a2 2 0 0 1 2 2v2a2 2 0 0 1-2 2H2a2 2 0 0 1-2-2V2zm0 7c0-1.1.9-2 2-2h16a2 2 0 0 1 2 2v2a2 2 0 0 1-2 2H2a2 2 0 0 1-2-2V9zm0 7c0-1.1.9-2 2-2h16a2 2 0 0 1 2 2v2a2 2 0 0 1-2 2H2a2 2 0 0 1-2-2v-2zM12 2v2h2V2h-2zm4 0v2h2V2h-2zm-4 7v2h2V9h-2zm4 0v2h2V9h-2zm-4 7v2h2v-2h-2zm4 0v2h2v-2h-2z"/>
</g>
</svg>